<svg id="wave" style="transform:rotate(0deg); transition: 0.3s" viewBox="0 0 1440 490" version="1.1" xmlns="http://www.w3.org/2000/svg"><defs><linearGradient id="sw-gradient-0" x1="0" x2="0" y1="1" y2="0"><stop stop-color="rgba(255, 0, 0, 1)" offset="0%"></stop><stop stop-color="rgba(255, 0, 0, 1)" offset="100%"></stop></linearGradient></defs><path style="transform:translate(0, 0px); opacity:1" fill="url(#sw-gradient-0)" d="M0,441L34.3,383.8C68.6,327,137,212,206,212.3C274.3,212,343,327,411,334.8C480,343,549,245,617,196C685.7,147,754,147,823,122.5C891.4,98,960,49,1029,81.7C1097.1,114,1166,229,1234,277.7C1302.9,327,1371,310,1440,261.3C1508.6,212,1577,131,1646,106.2C1714.3,82,1783,114,1851,147C1920,180,1989,212,2057,187.8C2125.7,163,2194,82,2263,81.7C2331.4,82,2400,163,2469,204.2C2537.1,245,2606,245,2674,277.7C2742.9,310,2811,376,2880,383.8C2948.6,392,3017,343,3086,277.7C3154.3,212,3223,131,3291,106.2C3360,82,3429,114,3497,130.7C3565.7,147,3634,147,3703,155.2C3771.4,163,3840,180,3909,155.2C3977.1,131,4046,65,4114,89.8C4182.9,114,4251,229,4320,236.8C4388.6,245,4457,147,4526,122.5C4594.3,98,4663,147,4731,147C4800,147,4869,98,4903,73.5L4937.1,49L4937.1,490L4902.9,490C4868.6,490,4800,490,4731,490C4662.9,490,4594,490,4526,490C4457.1,490,4389,490,4320,490C4251.4,490,4183,490,4114,490C4045.7,490,3977,490,3909,490C3840,490,3771,490,3703,490C3634.3,490,3566,490,3497,490C3428.6,490,3360,490,3291,490C3222.9,490,3154,490,3086,490C3017.1,490,2949,490,2880,490C2811.4,490,2743,490,2674,490C2605.7,490,2537,490,2469,490C2400,490,2331,490,2263,490C2194.3,490,2126,490,2057,490C1988.6,490,1920,490,1851,490C1782.9,490,1714,490,1646,490C1577.1,490,1509,490,1440,490C1371.4,490,1303,490,1234,490C1165.7,490,1097,490,1029,490C960,490,891,490,823,490C754.3,490,686,490,617,490C548.6,490,480,490,411,490C342.9,490,274,490,206,490C137.1,490,69,490,34,490L0,490Z"></path></svg>